<svg height="62" viewBox="0 0 227 62" fill="none" xmlns="http://www.w3.org/2000/svg">
  <rect width="227" height="62" rx="10" fill="white"/>
  <path d="M10 10H48V48C48 50.2091 46.2091 52 44 52H14C11.7909 52 10 50.2091 10 48V10Z" fill="#ECECEC"/>
  <mask id="mask0_110_16" style="mask-type:alpha" maskUnits="userSpaceOnUse" x="10" y="10" width="38" height="42">
    <path d="M10 10H48V48C48 50.2091 46.2091 52 44 52H14C11.7909 52 10 50.2091 10 48V10Z" fill="#ECECEC"/>
  </mask>
  <g mask="url(#mask0_110_16)" id="chrome-icon" class="hover:scale-110">
    <path d="M29.0001 57.902C33.917 57.902 37.9027 53.916 37.9027 48.9992C37.9027 44.0823 33.917 40.0963 29.0001 40.0963C24.0832 40.0963 20.0972 44.0823 20.0972 48.9992C20.0972 53.916 24.0832 57.902 29.0001 57.902Z" fill="white"/>
    <path d="M17.4861 44.6246C16.8219 43.4742 16.0412 42.2668 15.1441 41.0024C13.7395 43.4346 13.0001 46.1937 13 49.0023C13 51.8109 13.7393 54.57 15.1438 57.0022C16.5482 59.4344 18.5683 61.4541 21.0008 62.858C23.4333 64.2619 26.1926 65.0007 29.0012 65.0001C30.4738 62.9347 31.4736 61.4455 32.0007 60.5326C33.013 58.7791 34.3223 56.2686 35.9286 53.0012V52.9993C35.2268 54.216 34.2171 55.2264 33.001 55.929C31.7848 56.6316 30.4051 57.0017 29.0006 57.0019C27.5961 57.0021 26.2163 56.6325 24.9999 55.9303C23.7836 55.228 22.7735 54.2179 22.0714 53.0014C19.8899 48.9329 18.3615 46.1406 17.4861 44.6246Z" fill="#229342"/>
    <path d="M29.0013 65.0002C31.1025 65.0005 33.1828 64.5863 35.1241 63.7823C37.0654 62.9784 38.8293 61.7999 40.315 60.314C41.8007 58.8282 42.9792 57.0643 43.783 55.1229C44.5869 53.1816 45.0004 51.1009 44.9999 48.9997C44.9993 46.191 44.2594 43.4321 42.8545 41C39.8235 40.7013 37.5866 40.5519 36.1438 40.5519C34.5078 40.5519 32.1264 40.7013 28.9998 41L28.998 41.0013C30.4026 41.0006 31.7825 41.3698 32.9991 42.0716C34.2157 42.7735 35.2261 43.7834 35.9285 44.9997C36.631 46.2159 37.0008 47.5957 37.0008 49.0003C37.0008 50.4049 36.6312 51.785 35.9287 53.0013L29.0013 65.0002Z" fill="#FBC116"/>
    <path d="M29.0003 55.3347C32.4983 55.3347 35.3339 52.499 35.3339 49.0009C35.3339 45.5028 32.4983 42.6672 29.0002 42.6672C25.5023 42.6672 22.6665 45.5029 22.6665 49.0009C22.6665 52.4989 25.5023 55.3347 29.0003 55.3347Z" fill="#1A73E8"/>
    <path d="M28.9997 41H42.8544C41.4505 38.5675 39.4313 36.5479 36.999 35.1435C34.5667 33.7391 31.8076 32.9998 28.9989 33C26.1903 33.0002 23.4313 33.7398 20.9992 35.1446C18.5671 36.5493 16.5476 38.5698 15.144 41.0025L22.0714 53.0015L22.0734 53.0022C21.3706 51.7861 21.0004 50.4064 21 49.0019C20.9996 47.5974 21.369 46.2175 22.0711 45.001C22.7732 43.7845 23.7832 42.7744 24.9996 42.0721C26.2159 41.3698 27.5951 40.9998 28.9997 41Z" fill="#E33B2E"/>
  </g>
  <path d="M34.5 14H22.5C21.6716 14 21 14.6716 21 15.5C21 16.3284 21.6716 17 22.5 17H34.5C35.3284 17 36 16.3284 36 15.5C36 14.6716 35.3284 14 34.5 14Z" fill="white"/>
  <path d="M58.24 26L61.312 17.48H62.704L65.776 26H64.648L63.796 23.576H60.22L59.368 26H58.24ZM60.568 22.568H63.448L62.008 18.38L60.568 22.568ZM67.8808 26L65.5648 19.64H66.6688L68.5168 24.968L70.3648 19.64H71.4688L69.1528 26H67.8808ZM74.1408 26.144C73.4848 26.144 72.9608 25.992 72.5688 25.688C72.1848 25.384 71.9928 24.96 71.9928 24.416C71.9928 23.872 72.1528 23.444 72.4728 23.132C72.7928 22.82 73.3008 22.6 73.9968 22.472L76.2528 22.052C76.2528 21.516 76.1248 21.116 75.8688 20.852C75.6208 20.588 75.2448 20.456 74.7408 20.456C74.3008 20.456 73.9528 20.556 73.6968 20.756C73.4408 20.948 73.2648 21.228 73.1688 21.596L72.1008 21.512C72.2208 20.912 72.5088 20.428 72.9648 20.06C73.4288 19.684 74.0208 19.496 74.7408 19.496C75.5568 19.496 76.1808 19.728 76.6128 20.192C77.0448 20.648 77.2608 21.28 77.2608 22.088V24.716C77.2608 24.86 77.2848 24.964 77.3328 25.028C77.3888 25.084 77.4768 25.112 77.5968 25.112H77.8488V26C77.8168 26.008 77.7648 26.012 77.6928 26.012C77.6208 26.02 77.5448 26.024 77.4648 26.024C77.1768 26.024 76.9408 25.98 76.7568 25.892C76.5808 25.796 76.4528 25.652 76.3728 25.46C76.2928 25.26 76.2528 25 76.2528 24.68L76.3728 24.704C76.3168 24.976 76.1808 25.224 75.9648 25.448C75.7488 25.664 75.4808 25.836 75.1608 25.964C74.8408 26.084 74.5008 26.144 74.1408 26.144ZM74.2368 25.256C74.6608 25.256 75.0208 25.176 75.3168 25.016C75.6208 24.848 75.8528 24.624 76.0128 24.344C76.1728 24.056 76.2528 23.736 76.2528 23.384V22.928L74.1888 23.312C73.7568 23.392 73.4568 23.516 73.2888 23.684C73.1288 23.844 73.0488 24.056 73.0488 24.32C73.0488 24.616 73.1528 24.848 73.3608 25.016C73.5768 25.176 73.8688 25.256 74.2368 25.256ZM78.9405 26V19.64H79.9485V26H78.9405ZM78.9165 18.644V17.468H79.9725V18.644H78.9165ZM83.001 26C82.633 26 82.333 25.904 82.101 25.712C81.869 25.52 81.753 25.216 81.753 24.8V17.48H82.761V24.716C82.761 24.844 82.793 24.944 82.857 25.016C82.929 25.08 83.029 25.112 83.157 25.112H83.709V26H83.001ZM86.6682 26.144C86.0122 26.144 85.4882 25.992 85.0962 25.688C84.7122 25.384 84.5202 24.96 84.5202 24.416C84.5202 23.872 84.6802 23.444 85.0002 23.132C85.3202 22.82 85.8282 22.6 86.5242 22.472L88.7802 22.052C88.7802 21.516 88.6522 21.116 88.3962 20.852C88.1482 20.588 87.7722 20.456 87.2682 20.456C86.8282 20.456 86.4802 20.556 86.2242 20.756C85.9682 20.948 85.7922 21.228 85.6962 21.596L84.6282 21.512C84.7482 20.912 85.0362 20.428 85.4922 20.06C85.9562 19.684 86.5482 19.496 87.2682 19.496C88.0842 19.496 88.7082 19.728 89.1402 20.192C89.5722 20.648 89.7882 21.28 89.7882 22.088V24.716C89.7882 24.86 89.8122 24.964 89.8602 25.028C89.9162 25.084 90.0042 25.112 90.1242 25.112H90.3762V26C90.3442 26.008 90.2922 26.012 90.2202 26.012C90.1482 26.02 90.0722 26.024 89.9922 26.024C89.7042 26.024 89.4682 25.98 89.2842 25.892C89.1082 25.796 88.9802 25.652 88.9002 25.46C88.8202 25.26 88.7802 25 88.7802 24.68L88.9002 24.704C88.8442 24.976 88.7082 25.224 88.4922 25.448C88.2762 25.664 88.0082 25.836 87.6882 25.964C87.3682 26.084 87.0282 26.144 86.6682 26.144ZM86.7642 25.256C87.1882 25.256 87.5482 25.176 87.8442 25.016C88.1482 24.848 88.3802 24.624 88.5402 24.344C88.7002 24.056 88.7802 23.736 88.7802 23.384V22.928L86.7162 23.312C86.2842 23.392 85.9842 23.516 85.8162 23.684C85.6562 23.844 85.5762 24.056 85.5762 24.32C85.5762 24.616 85.6802 24.848 85.8882 25.016C86.1042 25.176 86.3962 25.256 86.7642 25.256ZM94.3838 26.144C93.9438 26.144 93.5518 26.048 93.2078 25.856C92.8638 25.656 92.5998 25.384 92.4158 25.04L92.3798 26H91.4678V17.48H92.4758V20.528C92.6358 20.264 92.8838 20.028 93.2198 19.82C93.5558 19.604 93.9438 19.496 94.3838 19.496C94.9438 19.496 95.4278 19.632 95.8358 19.904C96.2438 20.176 96.5598 20.56 96.7838 21.056C97.0078 21.552 97.1198 22.14 97.1198 22.82C97.1198 23.5 97.0078 24.088 96.7838 24.584C96.5598 25.08 96.2438 25.464 95.8358 25.736C95.4278 26.008 94.9438 26.144 94.3838 26.144ZM94.3238 25.184C94.8598 25.184 95.2838 24.972 95.5958 24.548C95.9078 24.124 96.0638 23.548 96.0638 22.82C96.0638 22.084 95.9078 21.508 95.5958 21.092C95.2838 20.668 94.8678 20.456 94.3478 20.456C93.9558 20.456 93.6198 20.552 93.3398 20.744C93.0598 20.928 92.8438 21.196 92.6918 21.548C92.5478 21.9 92.4758 22.324 92.4758 22.82C92.4758 23.3 92.5478 23.72 92.6918 24.08C92.8438 24.432 93.0558 24.704 93.3278 24.896C93.6078 25.088 93.9398 25.184 94.3238 25.184ZM99.7939 26C99.4259 26 99.1259 25.904 98.8939 25.712C98.6619 25.52 98.5459 25.216 98.5459 24.8V17.48H99.5539V24.716C99.5539 24.844 99.5859 24.944 99.6499 25.016C99.7219 25.08 99.8219 25.112 99.9499 25.112H100.502V26H99.7939ZM104.159 26.144C103.559 26.144 103.039 26.008 102.599 25.736C102.167 25.464 101.831 25.08 101.591 24.584C101.359 24.08 101.243 23.492 101.243 22.82C101.243 22.148 101.359 21.564 101.591 21.068C101.831 20.572 102.163 20.188 102.587 19.916C103.019 19.636 103.527 19.496 104.111 19.496C104.663 19.496 105.151 19.628 105.575 19.892C105.999 20.148 106.327 20.524 106.559 21.02C106.799 21.516 106.919 22.12 106.919 22.832V23.132H102.299C102.339 23.812 102.519 24.324 102.839 24.668C103.167 25.012 103.607 25.184 104.159 25.184C104.575 25.184 104.915 25.088 105.179 24.896C105.451 24.696 105.639 24.436 105.743 24.116L106.823 24.2C106.655 24.768 106.335 25.236 105.863 25.604C105.399 25.964 104.831 26.144 104.159 26.144ZM102.299 22.244H105.815C105.767 21.628 105.587 21.176 105.275 20.888C104.971 20.6 104.583 20.456 104.111 20.456C103.623 20.456 103.219 20.608 102.899 20.912C102.587 21.208 102.387 21.652 102.299 22.244ZM111.401 26V19.64H112.409V26H111.401ZM111.377 18.644V17.468H112.433V18.644H111.377ZM114.448 26V19.64H115.372L115.408 21.26L115.288 21.152C115.368 20.776 115.508 20.468 115.708 20.228C115.908 19.98 116.148 19.796 116.428 19.676C116.716 19.556 117.024 19.496 117.352 19.496C117.84 19.496 118.24 19.604 118.552 19.82C118.872 20.036 119.108 20.328 119.26 20.696C119.42 21.056 119.5 21.46 119.5 21.908V26H118.492V22.196C118.492 21.804 118.444 21.476 118.348 21.212C118.26 20.94 118.116 20.736 117.916 20.6C117.716 20.456 117.456 20.384 117.136 20.384C116.648 20.384 116.244 20.54 115.924 20.852C115.612 21.156 115.456 21.604 115.456 22.196V26H114.448ZM126.749 26C126.173 26 125.745 25.868 125.465 25.604C125.193 25.34 125.057 24.928 125.057 24.368V18.152H126.065V24.344C126.065 24.632 126.129 24.832 126.257 24.944C126.385 25.056 126.581 25.112 126.845 25.112H127.757V26H126.749ZM124.121 20.528V19.64H127.757V20.528H124.121ZM129.05 26V17.48H130.058V21.044L129.938 21.02C130.018 20.668 130.154 20.38 130.346 20.156C130.538 19.932 130.774 19.768 131.054 19.664C131.334 19.552 131.642 19.496 131.978 19.496C132.434 19.496 132.818 19.6 133.13 19.808C133.45 20.008 133.69 20.292 133.85 20.66C134.018 21.02 134.102 21.436 134.102 21.908V26H133.094V22.196C133.094 21.58 132.982 21.124 132.758 20.828C132.542 20.532 132.21 20.384 131.762 20.384C131.25 20.384 130.838 20.54 130.526 20.852C130.214 21.164 130.058 21.616 130.058 22.208V26H129.05ZM138.366 26.144C137.766 26.144 137.246 26.008 136.806 25.736C136.374 25.464 136.038 25.08 135.798 24.584C135.566 24.08 135.45 23.492 135.45 22.82C135.45 22.148 135.566 21.564 135.798 21.068C136.038 20.572 136.37 20.188 136.794 19.916C137.226 19.636 137.734 19.496 138.318 19.496C138.87 19.496 139.358 19.628 139.782 19.892C140.206 20.148 140.534 20.524 140.766 21.02C141.006 21.516 141.126 22.12 141.126 22.832V23.132H136.506C136.546 23.812 136.726 24.324 137.046 24.668C137.374 25.012 137.814 25.184 138.366 25.184C138.782 25.184 139.122 25.088 139.386 24.896C139.658 24.696 139.846 24.436 139.95 24.116L141.03 24.2C140.862 24.768 140.542 25.236 140.07 25.604C139.606 25.964 139.038 26.144 138.366 26.144ZM136.506 22.244H140.022C139.974 21.628 139.794 21.176 139.482 20.888C139.178 20.6 138.79 20.456 138.318 20.456C137.83 20.456 137.426 20.608 137.106 20.912C136.794 21.208 136.594 21.652 136.506 22.244Z" fill="black"/>
  <path d="M64.624 45.288C63.472 45.288 62.458 45.024 61.582 44.496C60.706 43.956 60.022 43.188 59.53 42.192C59.038 41.196 58.792 40.008 58.792 38.628C58.792 37.26 59.032 36.078 59.512 35.082C60.004 34.074 60.688 33.3 61.564 32.76C62.44 32.208 63.466 31.932 64.642 31.932C66.226 31.932 67.456 32.328 68.332 33.12C69.208 33.912 69.778 35.01 70.042 36.414L68.008 36.522C67.84 35.646 67.48 34.962 66.928 34.47C66.376 33.966 65.614 33.714 64.642 33.714C63.862 33.714 63.184 33.912 62.608 34.308C62.044 34.704 61.6 35.268 61.276 36C60.964 36.732 60.808 37.608 60.808 38.628C60.808 39.648 60.964 40.524 61.276 41.256C61.6 41.988 62.05 42.546 62.626 42.93C63.202 43.314 63.868 43.506 64.624 43.506C65.656 43.506 66.454 43.236 67.018 42.696C67.594 42.144 67.954 41.388 68.098 40.428L70.132 40.536C69.976 41.508 69.664 42.348 69.196 43.056C68.728 43.764 68.11 44.316 67.342 44.712C66.574 45.096 65.668 45.288 64.624 45.288ZM72.1293 45V32.22H74.0373V37.584L73.8033 37.548C73.9113 37.008 74.1093 36.57 74.3973 36.234C74.6853 35.886 75.0393 35.628 75.4593 35.46C75.8793 35.292 76.3413 35.208 76.8453 35.208C77.5413 35.208 78.1293 35.364 78.6093 35.676C79.0893 35.976 79.4493 36.402 79.6893 36.954C79.9413 37.506 80.0673 38.136 80.0673 38.844V45H78.1593V39.348C78.1593 38.484 78.0093 37.848 77.7093 37.44C77.4213 37.02 76.9653 36.81 76.3413 36.81C75.6453 36.81 75.0873 37.032 74.6673 37.476C74.2473 37.908 74.0373 38.544 74.0373 39.384V45H72.1293ZM82.4301 45V35.424H84.1761L84.2481 37.962L84.0861 37.908C84.2181 37.044 84.4821 36.414 84.8781 36.018C85.2861 35.622 85.8321 35.424 86.5161 35.424H87.4341V37.134H86.5161C86.0361 37.134 85.6341 37.212 85.3101 37.368C84.9861 37.524 84.7401 37.764 84.5721 38.088C84.4161 38.412 84.3381 38.832 84.3381 39.348V45H82.4301ZM92.7354 45.216C91.8234 45.216 91.0254 45.012 90.3414 44.604C89.6574 44.196 89.1294 43.614 88.7574 42.858C88.3854 42.102 88.1994 41.22 88.1994 40.212C88.1994 39.192 88.3854 38.31 88.7574 37.566C89.1294 36.822 89.6574 36.246 90.3414 35.838C91.0254 35.418 91.8234 35.208 92.7354 35.208C93.6474 35.208 94.4454 35.418 95.1294 35.838C95.8134 36.246 96.3414 36.822 96.7134 37.566C97.0854 38.31 97.2714 39.192 97.2714 40.212C97.2714 41.22 97.0854 42.102 96.7134 42.858C96.3414 43.614 95.8134 44.196 95.1294 44.604C94.4454 45.012 93.6474 45.216 92.7354 45.216ZM92.7354 43.56C93.5514 43.56 94.1814 43.266 94.6254 42.678C95.0694 42.078 95.2914 41.256 95.2914 40.212C95.2914 39.168 95.0694 38.352 94.6254 37.764C94.1814 37.164 93.5514 36.864 92.7354 36.864C91.9314 36.864 91.3014 37.164 90.8454 37.764C90.4014 38.352 90.1794 39.168 90.1794 40.212C90.1794 41.256 90.4014 42.078 90.8454 42.678C91.3014 43.266 91.9314 43.56 92.7354 43.56ZM99.1996 45V35.424H100.946L101 37.8L100.784 37.728C100.892 37.2 101.078 36.75 101.342 36.378C101.618 36.006 101.954 35.718 102.35 35.514C102.746 35.31 103.178 35.208 103.646 35.208C104.462 35.208 105.128 35.442 105.644 35.91C106.16 36.366 106.484 36.996 106.616 37.8H106.31C106.418 37.236 106.598 36.768 106.85 36.396C107.114 36.012 107.45 35.718 107.858 35.514C108.266 35.31 108.728 35.208 109.244 35.208C109.916 35.208 110.486 35.352 110.954 35.64C111.434 35.916 111.794 36.324 112.034 36.864C112.286 37.404 112.412 38.064 112.412 38.844V45H110.504V39.312C110.504 38.484 110.354 37.86 110.054 37.44C109.754 37.02 109.298 36.81 108.686 36.81C108.29 36.81 107.942 36.912 107.642 37.116C107.342 37.32 107.108 37.614 106.94 37.998C106.784 38.382 106.706 38.844 106.706 39.384V45H104.888V39.384C104.888 38.568 104.75 37.938 104.474 37.494C104.21 37.038 103.754 36.81 103.106 36.81C102.698 36.81 102.344 36.912 102.044 37.116C101.756 37.32 101.528 37.62 101.36 38.016C101.192 38.4 101.108 38.856 101.108 39.384V45H99.1996ZM118.856 45.216C117.92 45.216 117.11 45.012 116.426 44.604C115.754 44.196 115.232 43.614 114.86 42.858C114.5 42.102 114.32 41.22 114.32 40.212C114.32 39.204 114.5 38.328 114.86 37.584C115.232 36.828 115.754 36.246 116.426 35.838C117.098 35.418 117.89 35.208 118.802 35.208C119.666 35.208 120.428 35.412 121.088 35.82C121.748 36.216 122.258 36.792 122.618 37.548C122.99 38.304 123.176 39.216 123.176 40.284V40.77H116.3C116.348 41.706 116.594 42.408 117.038 42.876C117.494 43.344 118.106 43.578 118.874 43.578C119.438 43.578 119.906 43.446 120.278 43.182C120.65 42.918 120.908 42.564 121.052 42.12L123.032 42.246C122.78 43.134 122.282 43.854 121.538 44.406C120.806 44.946 119.912 45.216 118.856 45.216ZM116.3 39.33H121.16C121.1 38.478 120.854 37.848 120.422 37.44C120.002 37.032 119.462 36.828 118.802 36.828C118.118 36.828 117.554 37.044 117.11 37.476C116.678 37.896 116.408 38.514 116.3 39.33ZM132.381 45L128.997 32.22H131.067L133.551 42.318L136.035 32.22H138.015L140.499 42.318L142.965 32.22H145.071L141.669 45H139.401L137.025 35.676L134.649 45H132.381ZM150.233 45.216C149.297 45.216 148.487 45.012 147.803 44.604C147.131 44.196 146.609 43.614 146.237 42.858C145.877 42.102 145.697 41.22 145.697 40.212C145.697 39.204 145.877 38.328 146.237 37.584C146.609 36.828 147.131 36.246 147.803 35.838C148.475 35.418 149.267 35.208 150.179 35.208C151.043 35.208 151.805 35.412 152.465 35.82C153.125 36.216 153.635 36.792 153.995 37.548C154.367 38.304 154.553 39.216 154.553 40.284V40.77H147.677C147.725 41.706 147.971 42.408 148.415 42.876C148.871 43.344 149.483 43.578 150.251 43.578C150.815 43.578 151.283 43.446 151.655 43.182C152.027 42.918 152.285 42.564 152.429 42.12L154.409 42.246C154.157 43.134 153.659 43.854 152.915 44.406C152.183 44.946 151.289 45.216 150.233 45.216ZM147.677 39.33H152.537C152.477 38.478 152.231 37.848 151.799 37.44C151.379 37.032 150.839 36.828 150.179 36.828C149.495 36.828 148.931 37.044 148.487 37.476C148.055 37.896 147.785 38.514 147.677 39.33ZM161.257 45.216C160.597 45.216 160.009 45.072 159.493 44.784C158.989 44.484 158.599 44.076 158.323 43.56L158.269 45H156.487V32.22H158.395V36.774C158.647 36.354 159.019 35.988 159.511 35.676C160.015 35.364 160.597 35.208 161.257 35.208C162.085 35.208 162.805 35.412 163.417 35.82C164.029 36.228 164.497 36.81 164.821 37.566C165.157 38.31 165.325 39.192 165.325 40.212C165.325 41.232 165.157 42.12 164.821 42.876C164.497 43.62 164.029 44.196 163.417 44.604C162.805 45.012 162.085 45.216 161.257 45.216ZM160.951 43.56C161.683 43.56 162.265 43.266 162.697 42.678C163.129 42.078 163.345 41.256 163.345 40.212C163.345 39.168 163.129 38.352 162.697 37.764C162.265 37.164 161.689 36.864 160.969 36.864C160.429 36.864 159.967 36.996 159.583 37.26C159.199 37.524 158.905 37.908 158.701 38.412C158.497 38.904 158.395 39.504 158.395 40.212C158.395 40.896 158.497 41.49 158.701 41.994C158.905 42.498 159.199 42.888 159.583 43.164C159.967 43.428 160.423 43.56 160.951 43.56ZM176.621 45.288C175.601 45.288 174.713 45.102 173.957 44.73C173.213 44.358 172.625 43.842 172.193 43.182C171.761 42.522 171.509 41.754 171.437 40.878L173.435 40.752C173.519 41.352 173.693 41.862 173.957 42.282C174.221 42.69 174.575 43.002 175.019 43.218C175.475 43.422 176.021 43.524 176.657 43.524C177.209 43.524 177.677 43.458 178.061 43.326C178.457 43.182 178.757 42.972 178.961 42.696C179.165 42.42 179.267 42.084 179.267 41.688C179.267 41.328 179.177 41.01 178.997 40.734C178.829 40.446 178.499 40.188 178.007 39.96C177.527 39.72 176.819 39.486 175.883 39.258C174.863 39.006 174.047 38.73 173.435 38.43C172.823 38.13 172.379 37.758 172.103 37.314C171.839 36.858 171.707 36.3 171.707 35.64C171.707 34.908 171.881 34.266 172.229 33.714C172.589 33.15 173.099 32.712 173.759 32.4C174.419 32.088 175.211 31.932 176.135 31.932C177.107 31.932 177.935 32.112 178.619 32.472C179.315 32.832 179.861 33.324 180.257 33.948C180.665 34.572 180.917 35.286 181.013 36.09L179.015 36.198C178.955 35.706 178.805 35.274 178.565 34.902C178.325 34.518 178.001 34.224 177.593 34.02C177.185 33.804 176.687 33.696 176.099 33.696C175.355 33.696 174.767 33.87 174.335 34.218C173.915 34.554 173.705 35.004 173.705 35.568C173.705 35.928 173.789 36.234 173.957 36.486C174.137 36.726 174.449 36.936 174.893 37.116C175.349 37.296 175.991 37.488 176.819 37.692C177.923 37.944 178.799 38.256 179.447 38.628C180.107 38.988 180.575 39.414 180.851 39.906C181.127 40.398 181.265 40.956 181.265 41.58C181.265 42.336 181.067 42.996 180.671 43.56C180.287 44.112 179.747 44.538 179.051 44.838C178.355 45.138 177.545 45.288 176.621 45.288ZM186.842 45C185.93 45 185.258 44.79 184.826 44.37C184.394 43.95 184.178 43.296 184.178 42.408V33.174H186.086V42.264C186.086 42.708 186.182 43.014 186.374 43.182C186.566 43.35 186.86 43.434 187.256 43.434H188.624V45H186.842ZM182.72 36.99V35.424H188.624V36.99H182.72ZM194.231 45.216C193.319 45.216 192.521 45.012 191.837 44.604C191.153 44.196 190.625 43.614 190.253 42.858C189.881 42.102 189.695 41.22 189.695 40.212C189.695 39.192 189.881 38.31 190.253 37.566C190.625 36.822 191.153 36.246 191.837 35.838C192.521 35.418 193.319 35.208 194.231 35.208C195.143 35.208 195.941 35.418 196.625 35.838C197.309 36.246 197.837 36.822 198.209 37.566C198.581 38.31 198.767 39.192 198.767 40.212C198.767 41.22 198.581 42.102 198.209 42.858C197.837 43.614 197.309 44.196 196.625 44.604C195.941 45.012 195.143 45.216 194.231 45.216ZM194.231 43.56C195.047 43.56 195.677 43.266 196.121 42.678C196.565 42.078 196.787 41.256 196.787 40.212C196.787 39.168 196.565 38.352 196.121 37.764C195.677 37.164 195.047 36.864 194.231 36.864C193.427 36.864 192.797 37.164 192.341 37.764C191.897 38.352 191.675 39.168 191.675 40.212C191.675 41.256 191.897 42.078 192.341 42.678C192.797 43.266 193.427 43.56 194.231 43.56ZM200.696 45V35.424H202.442L202.514 37.962L202.352 37.908C202.484 37.044 202.748 36.414 203.144 36.018C203.552 35.622 204.098 35.424 204.782 35.424H205.7V37.134H204.782C204.302 37.134 203.9 37.212 203.576 37.368C203.252 37.524 203.006 37.764 202.838 38.088C202.682 38.412 202.604 38.832 202.604 39.348V45H200.696ZM211.001 45.216C210.065 45.216 209.255 45.012 208.571 44.604C207.899 44.196 207.377 43.614 207.005 42.858C206.645 42.102 206.465 41.22 206.465 40.212C206.465 39.204 206.645 38.328 207.005 37.584C207.377 36.828 207.899 36.246 208.571 35.838C209.243 35.418 210.035 35.208 210.947 35.208C211.811 35.208 212.573 35.412 213.233 35.82C213.893 36.216 214.403 36.792 214.763 37.548C215.135 38.304 215.321 39.216 215.321 40.284V40.77H208.445C208.493 41.706 208.739 42.408 209.183 42.876C209.639 43.344 210.251 43.578 211.019 43.578C211.583 43.578 212.051 43.446 212.423 43.182C212.795 42.918 213.053 42.564 213.197 42.12L215.177 42.246C214.925 43.134 214.427 43.854 213.683 44.406C212.951 44.946 212.057 45.216 211.001 45.216ZM208.445 39.33H213.305C213.245 38.478 212.999 37.848 212.567 37.44C212.147 37.032 211.607 36.828 210.947 36.828C210.263 36.828 209.699 37.044 209.255 37.476C208.823 37.896 208.553 38.514 208.445 39.33Z" fill="black"/>
</svg>

